<?xml version="1.0" standalone="no"?>
<!DOCTYPE svg PUBLIC "-//W3C//DTD SVG 1.1//EN" "http://www.w3.org/Graphics/SVG/1.1/DTD/svg11.dtd" >
<svg xmlns="http://www.w3.org/2000/svg" xmlns:xlink="http://www.w3.org/1999/xlink" version="1.1">
<metadata></metadata>
<defs>
<font id="discoregular" horiz-adv-x="2048" >
<font-face units-per-em="2048" ascent="1638" descent="-410" />
<missing-glyph horiz-adv-x="880" />
<glyph horiz-adv-x="0" />
<glyph unicode="&#xd;" horiz-adv-x="880" />
<glyph unicode=" "  horiz-adv-x="880" />
<glyph unicode="&#x09;" horiz-adv-x="880" />
<glyph unicode="&#xa0;" horiz-adv-x="880" />
<glyph unicode="!" horiz-adv-x="591" d="M295 299v950h57v-950h-57zM295 -14v147h57v-147h-57z" />
<glyph unicode="&#x22;" horiz-adv-x="929" d="M739 846v389h62v-389h-62zM436 846v389h62v-389h-62z" />
<glyph unicode="#" horiz-adv-x="1605" d="M1239 733l-53 -297h274v-43h-286l-74 -393h-49l73 393h-405l-72 -393h-51l74 393h-293v43h307l55 297h-299v41h312l73 402h49l-73 -402h403l74 402h49l-74 -402h275v-41h-289zM788 733l-55 -297h402l57 297h-404z" />
<glyph unicode="$" horiz-adv-x="1683" d="M1001 -33v-149h-49v151q-287 23 -428 119q-160 109 -176 328h49q20 -195 153.5 -288t401.5 -116v606q-285 45 -401 103q-158 76 -158 223q0 289 559 324v71h49v-73q252 -18 379 -99q145 -90 179 -282h-50q-27 164 -148.5 241.5t-359.5 98.5v-572q96 -16 263 -47 q111 -27 174 -57q158 -78 157 -244q0 -303 -594 -338zM952 1225q-233 -12 -352 -64q-158 -70 -158 -217q0 -184 316 -248q39 -6 194 -32v561zM1368 528q-92 37 -367 82v-600q545 37 545 295q0 151 -178 223z" />
<glyph unicode="%" horiz-adv-x="1947" d="M1493 -23q-174 0 -270 91q-86 80 -86 206q0 135 95 218t261 83q172 0 266 -81.5t94 -219.5q0 -127 -94 -208q-100 -89 -266 -89zM565 -59h-61l1116 1294h59zM709 602q-172 0 -269 88q-86 80 -86 207q0 135 95.5 218t259.5 83q172 0 267 -83t95 -216q0 -127 -94 -209 q-100 -88 -268 -88zM1493 532q-156 0 -236 -73q-72 -68 -71 -185q0 -109 74 -178q84 -76 233 -76q150 0 236 78q78 70 77 176q0 117 -75 185q-82 73 -238 73zM709 1157q-154 0 -234 -76q-74 -68 -74 -184q0 -109 76 -178q82 -76 232 -76t237 78q78 70 78 176q0 119 -76 186 q-81 74 -239 74z" />
<glyph unicode="&#x26;" horiz-adv-x="1732" d="M1552 0l-204 193q-215 -221 -494 -222q-186 0 -326 82q-152 88 -151 226q0 111 119 210q98 84 327 195q-139 129 -188 190q-57 72 -57 130q0 115 110 178q94 53 234 53q143 0 242.5 -61.5t99.5 -169.5q0 -86 -88 -162q-78 -68 -277 -170l442 -412q49 121 50 223h45 q-2 -123 -64 -252l248 -231h-68zM924 1194q-127 0 -212 -52t-85 -136q0 -59 94 -164q23 -25 145 -140q152 74 221 123q127 90 127 179q0 84 -84.5 137t-205.5 53zM856 651q-92 -41 -268 -137q-168 -113 -168 -238q0 -119 143 -196q129 -68 291 -68q256 0 463 213z" />
<glyph unicode="'" horiz-adv-x="681" d="M436 846v389h117v-389h-117z" />
<glyph unicode="(" horiz-adv-x="872" d="M711 -305q-160 211 -231.5 396t-71.5 396q0 393 301 777h63q-311 -420 -311 -777q0 -375 315 -792h-65z" />
<glyph unicode=")" horiz-adv-x="878" d="M455 -305h-64q311 416 311 776q0 375 -315 793h66q162 -213 231 -394q74 -188 74 -399q0 -391 -303 -776z" />
<glyph unicode="*" horiz-adv-x="1155" d="M754 954l209 -198l-39 -21l-203 207l-205 -201l-37 25l213 190l-319 76l14 39l320 -80v248h41v-244l321 76l6 -41z" />
<glyph unicode="+" horiz-adv-x="1599" d="M981 418v-418h-43v418h-573v39h573v417h43v-417h575v-39h-575z" />
<glyph unicode="," horiz-adv-x="804" d="M254 -193v23q80 55 80 174v166h90v-166q0 -57 -23 -92q-36 -52 -147 -105z" />
<glyph unicode="-" horiz-adv-x="1501" d="M383 418v39h958v-39h-958z" />
<glyph unicode="." horiz-adv-x="722" d="M274 0v170h117v-170h-117z" />
<glyph unicode="/" horiz-adv-x="1218" d="M360 -29h-51l785 1293h53z" />
<glyph unicode="0" horiz-adv-x="1849" d="M924 -20q-317 0 -475 192q-131 160 -132 416q0 256 132 416q158 193 475 192q317 0 477 -192q131 -160 131 -416t-131 -416q-160 -192 -477 -192zM924 1157q-299 0 -443 -188q-115 -147 -114 -381q0 -231 114 -379q143 -188 443 -189q299 0 444 189q115 147 115 379 q0 233 -115 381q-145 188 -444 188z" />
<glyph unicode="1" horiz-adv-x="1849" d="M1112 0v1118q-303 -203 -434 -241v36q133 57 244 131q98 66 188 132h61v-1176h-59z" />
<glyph unicode="2" horiz-adv-x="1849" d="M383 0q20 141 139 242q61 51 166 106l197 98q92 43 282 150q207 135 207 283q0 129 -112.5 204.5t-315.5 75.5q-229 0 -341.5 -87t-129.5 -269h-49q20 209 152 303q125 90 364 90q215 0 342 -78q139 -84 139 -239q0 -188 -327 -371q-102 -53 -305 -158 q-168 -88 -193 -104q-121 -84 -162 -205h1030v-41h-1083z" />
<glyph unicode="3" horiz-adv-x="1849" d="M942 -20q-569 0 -582 407h52q14 -367 530 -367q209 0 346 78q150 84 150 226q0 141 -129 217q-121 72 -332 71h-68v41h68q434 0 430 254q-4 248 -455 248q-459 0 -497 -332h-49q35 373 546 373q213 0 346 -66q156 -78 156 -227q0 -84 -55 -153q-72 -90 -211 -119 q154 -35 233 -127q68 -78 68 -176q0 -162 -164 -258q-154 -90 -383 -90z" />
<glyph unicode="4" horiz-adv-x="1849" d="M1237 305v-305h-51v305h-834v45l824 826h61v-830h258v-41h-258zM1186 1122l-783 -776h783v776z" />
<glyph unicode="5" horiz-adv-x="1849" d="M918 -20q-518 0 -549 362h51q16 -176 151 -252q117 -66 347 -65q236 0 376 112q135 106 136 275q0 160 -138 268q-143 113 -370 113q-279 0 -453 -197h-68l148 580h844v-41h-793l-115 -451q164 152 437 152q244 0 400.5 -121t156.5 -303q0 -190 -157.5 -311t-403.5 -121z " />
<glyph unicode="6" horiz-adv-x="1849" d="M934 -20q-154 0 -287 57q-115 49 -182 127q-106 121 -107 391q0 262 127 432q158 209 480 209q377 0 475 -272h-45q-61 145 -195 200q-90 37 -237 37q-254 0 -408 -170t-139 -467q78 160 254 234q125 53 264 53q215 0 381 -119q176 -125 176 -305q0 -174 -165 -290.5 t-392 -116.5zM934 770q-213 0 -356 -121q-137 -113 -138 -262q0 -152 140 -256q141 -111 354 -111t356.5 109t143.5 258q0 150 -140 262q-147 121 -360 121z" />
<glyph unicode="7" horiz-adv-x="1849" d="M672 0h-51q14 313 184 573q168 254 553 562h-944v41h1020v-52q-360 -264 -533 -497q-209 -285 -229 -627z" />
<glyph unicode="8" horiz-adv-x="1849" d="M924 -20q-254 0 -410 83q-174 92 -174 267q0 256 350 319q-119 8 -198 88q-72 76 -72 162q0 152 147 229q133 68 357 68q223 0 356 -68q150 -78 150 -229q0 -193 -273 -260q166 -25 258 -111t92 -198q0 -174 -174 -267q-155 -83 -409 -83zM924 1157q-199 0 -314 -57 q-135 -68 -135 -201q0 -233 449 -233q451 0 450 233q0 133 -135 201q-116 57 -315 57zM924 623q-219 0 -359 -64q-168 -78 -168 -229q0 -156 156 -236q139 -74 371 -74q231 0 372 74q156 82 156 236q0 152 -166 229q-139 64 -362 64z" />
<glyph unicode="9" horiz-adv-x="1849" d="M885 -20q-193 0 -305 57q-119 59 -170 199h51q59 -135 188 -185q86 -33 238 -33q256 0 399 162q156 172 158 506q-172 -303 -531 -303q-240 0 -397.5 112.5t-157.5 295.5q0 174 168 292q162 113 387 113q154 0 287 -57q115 -49 182 -125q109 -123 109 -328q0 -29 -2 -61 q-16 -252 -121 -412q-155 -233 -483 -233zM913 1157q-211 0 -357 -110.5t-146 -260.5t146 -257t357 -107q205 0 365 129q147 117 145 240q-2 152 -149.5 259t-360.5 107z" />
<glyph unicode=":" horiz-adv-x="759" d="M504 717v172h117v-172h-117zM504 0v172h117v-172h-117z" />
<glyph unicode=";" horiz-adv-x="776" d="M553 715v174h88v-174h-88zM471 -197v35q82 55 82 166v172h88v-172q0 -59 -25 -96q-36 -52 -145 -105z" />
<glyph unicode="&#x3c;" horiz-adv-x="1605" d="M358 416v45l1198 428v-41l-1148 -410l1148 -411v-39z" />
<glyph unicode="=" horiz-adv-x="1556" d="M315 596v27h1192v-27h-1192zM315 252v27h1192v-27h-1192z" />
<glyph unicode="&#x3e;" horiz-adv-x="1595" d="M348 -12v39l1151 411l-1151 410v41l1202 -428v-45z" />
<glyph unicode="?" horiz-adv-x="1443" d="M1270 772q-41 -41 -121 -90q-94 -57 -125 -84q-119 -96 -135 -285h-49q23 223 200 351q39 29 82 55q88 55 123 96q63 70 64 162q0 113 -117 182.5t-305 69.5q-442 0 -465 -381h-51q12 205 147 310.5t369 105.5q203 0 334 -74q137 -80 137 -213q0 -117 -88 -205zM838 0v47 h49v-47h-49z" />
<glyph unicode="@" horiz-adv-x="2127" d="M1249 -20q-340 0 -571 149q-266 172 -266 481q0 270 249.5 458.5t591.5 188.5q311 0 511 -147t196 -391q-4 -207 -152 -352q-139 -135 -307 -136q-94 0 -143 113q-152 -98 -314 -98q-127 0 -221 80t-94 190q0 168 123 277q133 119 373 118q195 0 311 -135q6 -8 18 23 q10 20 19 41l41 2q-78 -154 -209 -447q-8 -20 -8 -37q0 -41 39 -67q33 -23 67 -23q158 0 285 136.5t129 308.5q2 131 -55.5 239.5t-165.5 165.5q-211 111 -441 111q-336 0 -575 -195q-229 -186 -229 -426q0 -276 235 -440q219 -154 557 -154q530 0 733 256h52 q-220 -290 -779 -290zM1202 874q-205 0 -321 -104q-109 -98 -109 -254q0 -86 74 -156q80 -78 207 -77q248 0 340 180q45 94 131 272q-93 139 -322 139z" />
<glyph unicode="A" horiz-adv-x="1835" d="M1661 0l-217 401h-846l-219 -401h-62l678 1235h64l659 -1235h-57zM1028 1194l-407 -748h798z" />
<glyph unicode="B" horiz-adv-x="1779" d="M1090 0h-695v1235h723q207 0 334 -76q139 -84 139 -235q0 -78 -65 -158q-84 -104 -230 -127q178 -18 273 -119q76 -80 76 -182q0 -164 -158 -254q-147 -84 -397 -84zM1118 1192h-672v-526h672q178 0 300 68.5t122 189.5q0 131 -121 202q-113 66 -301 66zM1118 621h-672 v-576h666q213 0 342 74q137 78 137 217q0 145 -145 219q-127 66 -328 66z" />
<glyph unicode="C" horiz-adv-x="1878" d="M1094 -29q-330 0 -542 178.5t-212 456.5q0 260 180 443q213 215 602 215q279 0 471 -123q174 -111 222 -283h-50q-51 160 -225 261.5t-418 101.5q-371 0 -567 -215q-158 -170 -158 -400q0 -242 178 -407q195 -182 519 -183q559 0 680 447h49q-141 -492 -729 -492z" />
<glyph unicode="D" horiz-adv-x="1824" d="M938 0h-514v1235h588q297 0 481 -125q233 -160 233 -494q0 -311 -243 -475q-211 -141 -545 -141zM1001 1192h-526v-1147h475q315 0 512 141q213 152 213 430q0 311 -211 457q-170 119 -463 119z" />
<glyph unicode="E" horiz-adv-x="1529" d="M346 0v1235h1122v-43h-1071v-526h1008v-45h-1008v-576h1082v-45h-1133z" />
<glyph unicode="F" horiz-adv-x="1431" d="M377 1192v-526h901v-45h-901v-621h-53v1235h1050v-43h-997z" />
<glyph unicode="G" horiz-adv-x="1961" d="M1819 317q-80 -182 -293 -274q-168 -72 -369 -72q-371 0 -582 189q-199 176 -198 456q0 281 207 461q217 186 573 187q260 0 440 -101q193 -109 267 -319h-49q-66 182 -239 279.5t-419 97.5q-340 0 -541 -181q-188 -170 -188 -432q0 -252 184 -413q201 -178 553 -179 q279 0 462 139.5t200 383.5h-543v45h590q0 -142 -55 -267z" />
<glyph unicode="H" horiz-adv-x="1873" d="M1655 0v621h-1168v-621h-51v1235h51v-569h1168v569h53v-1235h-53z" />
<glyph unicode="I" horiz-adv-x="645" d="M387 0v1235h51v-1235h-51z" />
<glyph unicode="J" horiz-adv-x="1482" d="M850 -29q-231 0 -350 97q-109 88 -109 241v80h55v-80q0 -141 106.5 -216t297.5 -75q418 0 418 330v887h53v-911q0 -353 -471 -353z" />
<glyph unicode="K" horiz-adv-x="1777" d="M1630 0l-823 684l-377 -248v-436h-53v1235h53v-743l1147 743h86l-811 -526l854 -709h-76z" />
<glyph unicode="L" horiz-adv-x="1421" d="M319 0v1235h54v-1190h989v-45h-1043z" />
<glyph unicode="M" horiz-adv-x="2166" d="M1950 0v1186l-705 -1186h-53l-705 1186v-1186h-51v1235h78l705 -1184l702 1184h78v-1235h-49z" />
<glyph unicode="N" horiz-adv-x="1873" d="M1634 0l-1147 1186v-1186h-51v1235h74l1145 -1184v1184h53v-1235h-74z" />
<glyph unicode="O" horiz-adv-x="2035" d="M1167 -29q-360 0 -571 191q-197 178 -197 454q0 279 197 457q211 190 571 191q358 0 570 -191q197 -178 196 -457q0 -276 -196 -454q-212 -191 -570 -191zM1167 1221q-332 0 -521 -169t-189 -436q0 -264 186 -428q193 -172 524 -172q330 0 527 172q186 164 186 428 q0 266 -186 433q-197 172 -527 172z" />
<glyph unicode="P" horiz-adv-x="1585" d="M1020 557h-608v-557h-54v1235h684q498 0 498 -338q0 -164 -142 -252t-378 -88zM1042 1192h-630v-590h630q205 0 326 80t121 215q-1 295 -447 295z" />
<glyph unicode="Q" horiz-adv-x="1980" d="M1575 111l219 -162l-47 -31l-219 164q-190 -111 -459 -111q-319 0 -532 160q-233 176 -234 485q0 309 234 488q213 160 532 160t533 -160q233 -178 233 -488q0 -321 -260 -505zM1069 1221q-301 0 -496 -148q-213 -164 -213 -457q0 -291 213 -452q195 -147 496 -148 q246 0 420 97l-211 151l47 31l211 -154q248 166 248 475q0 291 -217 457q-197 148 -498 148z" />
<glyph unicode="R" horiz-adv-x="1730" d="M1569 0q-39 102 -39 264t-76 228q-94 84 -364 83h-625v-575h-53v1235h686q252 0 371.5 -77t125.5 -240q2 -96 -63 -179q-84 -102 -250 -139q184 -25 252 -133q47 -72 47 -209q0 -170 53 -258h-65zM1108 1192h-643v-574h620q203 0 326 74q137 80 133 226q-8 274 -436 274z " />
<glyph unicode="S" horiz-adv-x="1714" d="M1026 -29q-618 0 -655 430h53q39 -391 602 -391q223 0 375 72q172 82 172 223q0 152 -154.5 212.5t-412.5 103.5q-186 31 -203 34q-115 20 -199 47q-182 57 -182 238q0 158 172 246q156 78 397 78q252 0 383 -70q160 -86 197 -295h-51q-33 182 -172 258q-119 66 -351 66 q-190 0 -327 -54q-193 -74 -193 -231q0 -145 158 -199q84 -29 293 -63q113 -18 338 -66q172 -45 241 -90q113 -74 113 -215q0 -166 -190 -256q-164 -78 -404 -78z" />
<glyph unicode="T" horiz-adv-x="1755" d="M1118 1192v-1192h-53v1192h-602v43h1257v-43h-602z" />
<glyph unicode="U" horiz-adv-x="1800" d="M1038 -29q-616 0 -616 490v774h51v-774q0 -446 565 -447q565 0 566 447v774h53v-774q-1 -490 -619 -490z" />
<glyph unicode="V" horiz-adv-x="1740" d="M1020 0h-53l-658 1235h56l628 -1184l613 1184h53z" />
<glyph unicode="W" horiz-adv-x="2463" d="M1898 0h-61l-485 1186l-473 -1186h-64l-485 1235h53l463 -1186l473 1186h70l479 -1186l459 1186h51z" />
<glyph unicode="X" horiz-adv-x="1742" d="M1585 0l-604 602l-610 -602h-66l641 635l-608 600h70l573 -569l575 569h68l-608 -600l635 -635h-66z" />
<glyph unicode="Y" horiz-adv-x="1746" d="M1020 518v-518h-49v518l-676 717h67l633 -672l637 672h64z" />
<glyph unicode="Z" horiz-adv-x="1585" d="M295 0v53l1163 1139h-1100v43h1160v-53l-1166 -1137h1184v-45h-1241z" />
<glyph unicode="[" horiz-adv-x="858" d="M436 -305v1569h324v-43h-260v-1485h260v-41h-324z" />
<glyph unicode="\" horiz-adv-x="1255" d="M1102 -29l-787 1293h54l784 -1293h-51z" />
<glyph unicode="]" horiz-adv-x="878" d="M391 -305v41h260v1485h-260v43h324v-1569h-324z" />
<glyph unicode="^" horiz-adv-x="1638" d="M1491 391l-518 748l-518 -748h-47l542 785h47l545 -785h-51z" />
<glyph unicode="_" horiz-adv-x="1331" d="M84 -217v88h1182v-88h-1182z" />
<glyph unicode="`" horiz-adv-x="759" d="M637 1016l-313 248h47l282 -248h-16z" />
<glyph unicode="a" horiz-adv-x="1476" d="M1419 53l2 -51h-51q-41 2 -76 39q-25 27 -34 133q-63 -94 -199 -147q-127 -49 -285 -50q-182 0 -293 74q-117 76 -116 211q0 207 217 266q90 25 229 33q233 12 234 12q29 2 94 11q125 29 125 121q0 246 -357 245q-180 0 -272 -53q-100 -57 -133 -199h-64q35 162 152 234 q111 70 317 69q406 0 406 -282v-512q0 -154 82 -154h22zM1266 588q-53 -63 -279 -74q-86 -4 -199 -10q-360 -20 -358 -244q0 -84 64 -143q90 -86 278 -86q236 0 369 108q125 100 125 258v191z" />
<glyph unicode="b" horiz-adv-x="1628" d="M950 -23q-154 0 -284 64q-152 74 -209 211v-252h-49v1358h49v-627q61 143 225 217q129 57 268 58q240 0 383 -150q137 -145 137 -367q0 -229 -143.5 -370.5t-376.5 -141.5zM950 952q-227 0 -360 -125t-133 -338q0 -203 136 -330.5t355 -127.5q229 0 359 143 q115 127 114 315q0 182 -106 310q-129 153 -365 153z" />
<glyph unicode="c" horiz-adv-x="1454" d="M901 -23q-248 0 -395.5 139.5t-147.5 352.5q0 231 142 377q154 156 430 155q365 0 459 -333h-48q-92 281 -411 280q-270 0 -406 -160q-109 -129 -108 -319q0 -180 119 -303q133 -139 366 -139q176 0 293 83t154 236h51q-90 -369 -498 -369z" />
<glyph unicode="d" horiz-adv-x="1546" d="M844 -23q141 0 276 68q160 78 217 213v-258h49v1358h-49v-627q-63 141 -227 217q-127 57 -266 58q-240 0 -385 -150q-137 -145 -137 -367q0 -229 143 -370.5t379 -141.5zM842 952q229 0 362 -125t133 -338q0 -190 -129 -321q-137 -137 -364 -137q-229 0 -359 143 q-113 127 -112 315q0 182 106 310q127 153 363 153z" />
<glyph unicode="e" horiz-adv-x="1351" d="M264 475q8 -203 127 -321q127 -123 348 -123q160 0 250 37q125 49 201 188h61q-61 -152 -183 -215.5t-325 -63.5q-268 0 -413 156q-127 137 -127 356q0 217 170 369q162 143 370 143q252 0 390.5 -140t142.5 -386h-1012zM752 948q-180 0 -322 -117q-147 -123 -166 -305 h946q-14 193 -131 305q-122 117 -327 117z" />
<glyph unicode="f" horiz-adv-x="909" d="M694 1298q-90 0 -129 -16q-61 -29 -61 -108v-189h278v-61h-278v-924h-55v924h-222v61h222v201q0 172 256 172q35 0 110 -6v-62q-68 8 -121 8z" />
<glyph unicode="g" horiz-adv-x="1599" d="M1430 37q0 -395 -512 -395q-197 0 -306 53q-141 70 -172 239h66q29 -240 412 -239q463 0 462 342v268q-51 -131 -227 -203q-131 -55 -258 -55q-223 0 -363 123q-147 127 -147 348q0 213 137 344q143 139 389 139q127 0 248 -55q160 -72 221 -211v244h50v-942zM913 952 q-229 0 -360 -135q-117 -121 -117 -299t113 -291q123 -127 342 -127q229 0 364 129q125 119 125 301q0 168 -123 291q-131 131 -344 131z" />
<glyph unicode="h" horiz-adv-x="1538" d="M1376 0h-51v645q0 147 -113 232q-104 76 -276 75q-215 0 -338 -125q-111 -111 -111 -270v-557h-51v1358h51v-596q61 127 211 192q115 51 238 52q195 0 313 -88q127 -96 127 -269v-649z" />
<glyph unicode="i" horiz-adv-x="663" d="M455 1251v107h57v-107h-57zM455 0v983h57v-983h-57z" />
<glyph unicode="j" horiz-adv-x="839" d="M606 1245v113h64v-113h-64zM322 -336v45q158 4 208 25q76 33 76 133v1116h64v-1116q0 -115 -69.5 -156t-278.5 -47z" />
<glyph unicode="k" horiz-adv-x="1400" d="M1262 0l-570 571l-315 -206v-365h-47v1358h47v-928l837 555h101l-578 -381l604 -604h-79z" />
<glyph unicode="l" horiz-adv-x="575" d="M365 0v1358h59v-1358h-59z" />
<glyph unicode="m" horiz-adv-x="2146" d="M1972 0h-47v627q0 135 -88 224t-242 89q-158 0 -266 -91t-108 -216v-633h-50v641q0 123 -69 205q-84 98 -252 98q-176 0 -280.5 -102.5t-104.5 -257.5v-584h-47v979h47v-223q41 111 151 172q100 55 226 55q133 0 231 -59q106 -66 125 -176q111 231 395 231 q168 0 273.5 -94t105.5 -258v-627z" />
<glyph unicode="n" horiz-adv-x="1482" d="M1313 0h-51v641q0 147 -113 233q-106 78 -277 78q-207 0 -333 -125q-115 -115 -115 -274v-553h-51v979h51v-236q35 123 194 199q129 59 252 59q186 0 310 -88q133 -98 133 -268v-645z" />
<glyph unicode="o" horiz-adv-x="1531" d="M930 -23q-252 0 -406 152q-143 143 -143 360q0 215 143 359q154 154 408 153q252 0 405 -153q143 -143 144 -359q0 -217 -144 -360q-153 -152 -407 -152zM932 948q-238 0 -377 -145q-125 -131 -125 -314q0 -186 125 -315q139 -145 377 -145q236 0 375 145 q125 129 125 315q0 182 -125 314q-142 145 -375 145z" />
<glyph unicode="p" horiz-adv-x="1529" d="M956 -27q-139 0 -266 56q-162 70 -225 204v-571h-51v1317h51v-262q47 135 209 217q139 68 282 67q238 0 380.5 -141t142.5 -371q0 -223 -138 -364q-143 -152 -385 -152zM961 946q-231 0 -369 -141q-127 -129 -127 -316q0 -213 131 -337.5t360 -124.5q236 0 365 153 q109 127 109 309q0 188 -113 316q-129 141 -356 141z" />
<glyph unicode="q" horiz-adv-x="1669" d="M956 -27q139 0 269 56q162 70 225 204v-571h51v1317h-51v-270q-49 135 -209 219q-141 74 -285 73q-233 0 -376.5 -141t-143.5 -371q0 -221 137 -364q143 -152 383 -152zM954 950q229 0 369 -143q127 -131 127 -318q0 -213 -133 -339.5t-361 -126.5q-238 0 -364 155 q-106 129 -107 311q0 188 113 318q129 143 356 143z" />
<glyph unicode="r" horiz-adv-x="1042" d="M438 553v-553h-55v979h55v-217q49 104 213 174q145 59 301 63v-57q-262 -10 -397 -129q-117 -102 -117 -260z" />
<glyph unicode="s" horiz-adv-x="1376" d="M874 -23q-238 0 -348 66q-129 78 -149 270h55q20 -162 133 -227q100 -61 309 -61q129 0 246 53q143 66 144 172q0 131 -205 184q-31 8 -60 15q-139 25 -417 94q-156 51 -156 207q0 102 94 172q113 80 320 79q193 0 288 -61q111 -72 140 -246h-54q-20 141 -110 200.5 t-264 59.5q-184 0 -281 -67q-80 -55 -80 -137q0 -117 133 -158q86 -27 224 -53q166 -33 223 -47q256 -66 256 -236q0 -129 -128.5 -204t-312.5 -75z" />
<glyph unicode="t" horiz-adv-x="952" d="M569 924v-727q0 -88 66 -121q33 -16 104 -17q55 0 115 11v-64q-70 -6 -125 -6q-215 0 -215 190v734h-240v59h240v303h55v-303h291v-59h-291z" />
<glyph unicode="u" horiz-adv-x="1447" d="M1239 0v221q-68 -135 -215 -196q-106 -47 -233 -48q-195 0 -314 89q-127 96 -127 266v645h51v-639q0 -150 113 -229q102 -74 277 -74q215 0 337 121q111 109 111 270v551h49v-977h-49z" />
<glyph unicode="v" horiz-adv-x="1490" d="M893 0h-55l-510 977h63l473 -928l439 928h59z" />
<glyph unicode="w" horiz-adv-x="2107" d="M1581 0h-55l-375 932l-377 -932h-61l-379 977h51l358 -930l371 930h70l368 -930l367 930h51z" />
<glyph unicode="x" horiz-adv-x="1495" d="M1292 0l-456 471l-453 -471h-74l492 506l-447 471h76l406 -436l417 436h70l-449 -471l492 -506h-74z" />
<glyph unicode="y" horiz-adv-x="1499" d="M793 -201q-43 -88 -138 -116q-55 -16 -184 -19v60q168 0 221 40q43 33 84 115q18 39 64 135l-514 963h59l485 -914l437 914h55z" />
<glyph unicode="z" horiz-adv-x="1376" d="M322 0v63l845 859h-780v55h850v-62l-846 -860h885v-55h-954z" />
<glyph unicode="{" horiz-adv-x="1036" d="M801 -305q-106 0 -148.5 45t-42.5 149v281q0 104 -35 166q-41 72 -149 127v51q184 61 184 274v285q0 104 42 147.5t149 43.5h129v-43h-125q-80 0 -109.5 -41t-29.5 -138v-282q0 -139 -146 -281q145 -137 146 -280v-279q0 -104 29.5 -144t109.5 -40h125v-41h-129z" />
<glyph unicode="|" horiz-adv-x="382" d="M246 -29v1293h57v-1293h-57z" />
<glyph unicode="}" horiz-adv-x="1011" d="M719 170v-285q0 -102 -42 -146t-149 -44h-131v41h127q80 0 109 41t29 139v283q0 137 145 280q-145 139 -145 281v278q0 104 -29 143.5t-109 39.5h-127v43h131q106 0 148.5 -45t42.5 -150v-281q0 -104 35 -165q41 -72 149 -127v-52q-184 -61 -184 -274z" />
<glyph unicode="~" horiz-adv-x="1581" d="M1206 352q-66 0 -252 78q-176 74 -270 74q-121 0 -223 -148l-19 6q125 150 238 160q53 4 197 -43q63 -29 223 -90q59 -20 112 -20q88 0 201 149l23 -4q-132 -162 -230 -162z" />
<glyph unicode="&#xa1;" horiz-adv-x="737" d="M467 762v176h117v-176h-117zM467 -305v930h117v-930h-117z" />
<glyph unicode="&#xa2;" horiz-adv-x="1552" d="M958 -31v-200h-49v200q-254 33 -387 185q-121 137 -121 335q0 195 123 332q133 150 385 185v161h49v-161q199 -23 306 -95q123 -80 166 -245h-48q-39 125 -137 190.5t-287 91.5v-921q365 49 435 319h51q-47 -180 -170 -270q-113 -84 -316 -107zM909 950 q-242 -45 -358 -184q-100 -115 -100 -277q0 -164 100 -280q117 -137 358 -182v923z" />
<glyph unicode="&#xa3;" horiz-adv-x="1581" d="M1143 -29q-59 0 -152 25q-76 20 -151 41q-82 20 -154 20q-133 0 -293 -86l-49 41q283 193 283 350q0 106 -70 232h-184v41h145q-156 233 -156 307q0 158 164 244q143 78 367 78q256 0 397 -109q150 -115 140 -330h-50q0 397 -487 398q-199 0 -332 -66q-150 -78 -149 -215 q0 -66 63 -162q12 -18 109 -145h370v-41h-327q47 -158 47 -232q0 -80 -105 -260q205 -6 291 -28q70 -20 139 -39q84 -23 144 -23q94 0 180 37q70 29 180 107l33 -27q-207 -158 -393 -158z" />
<glyph unicode="&#xa4;" horiz-adv-x="1710" d="M1405 295l127 -94l-35 -27l-131 96q-190 -106 -397 -106q-209 0 -398 106l-133 -96l-37 27l127 94q-131 154 -131 293t131 295l-127 94l37 24l133 -96q199 111 396 111q201 0 399 -111l131 96l35 -24l-127 -94q147 -172 147 -295t-147 -293zM967 979q-221 0 -379 -115.5 t-158 -275.5t157.5 -275.5t379.5 -115.5q221 0 378.5 115.5t157.5 275.5t-156.5 275.5t-379.5 115.5z" />
<glyph unicode="&#xa5;" horiz-adv-x="1646" d="M1020 567h313v-43h-344v-168h344v-43h-344v-313h-47v313h-344v43h344v168h-344v43h317l-553 668h58l547 -664l551 664h55z" />
<glyph unicode="&#xa6;" horiz-adv-x="743" d="M469 762v502h117v-502h-117zM469 -29v502h117v-502h-117z" />
<glyph unicode="&#xa7;" horiz-adv-x="1570" d="M1214 117q113 -129 105 -209q-12 -117 -129 -180q-102 -55 -258 -56q-391 0 -414 344h49q25 -299 365 -301q168 0 262 70q76 55 76 123q0 74 -39 117t-150 100q-141 63 -419 194q-158 78 -213 148q-45 55 -46 137q0 115 226 242q-90 119 -90 184q0 119 131 182 q104 51 243 52q362 0 404 -326h-47q-43 283 -361 283q-121 0 -204 -35q-123 -49 -117 -158q6 -96 133 -166q63 -35 233 -103.5t254 -111.5q250 -131 250 -295q0 -102 -244 -235zM1016 684q-104 45 -309 131q-252 -63 -252 -223q0 -125 235 -236q154 -70 443 -209 q274 55 274 207q0 86 -74 150q-79 69 -317 180z" />
<glyph unicode="&#xa8;" horiz-adv-x="944" d="M733 1020v141h60v-141h-60zM330 1020v141h57v-141h-57z" />
<glyph unicode="&#xa9;" horiz-adv-x="2207" d="M1241 -29q-358 0 -612 187.5t-254 457.5t254 459t612 189t612 -188.5t254 -459.5q0 -270 -254 -457.5t-612 -187.5zM1241 1223q-342 0 -580.5 -178.5t-238.5 -428.5t238.5 -427t580.5 -177t580.5 177.5t238.5 426.5q0 250 -238.5 428.5t-580.5 178.5zM1268 207 q-229 0 -369.5 112.5t-140.5 286.5q0 176 136 287t366 111q326 0 423 -267h-47q-82 225 -376 226q-213 0 -338 -103q-117 -98 -117 -252q0 -152 121 -254q129 -106 342 -106q266 0 370 233h45q-128 -274 -415 -274z" />
<glyph unicode="&#xaa;" horiz-adv-x="1327" d="M1184 655l2 -28h-29q-25 0 -42 18.5t-21 75.5q-74 -109 -265 -109q-227 0 -227 150q0 115 121 147q39 10 254 23q8 2 53 6q68 18 68 68q0 143 -195 143q-201 0 -233 -141h-35q35 170 268 170q223 0 223 -158v-281q0 -84 45 -84h13zM1098 940q-27 -31 -154 -39l-108 -6 q-199 -10 -199 -135q0 -43 37 -74q49 -43 151 -43q127 0 205 64q68 55 68 137v96z" />
<glyph unicode="&#xab;" horiz-adv-x="1083" d="M670 453v22l270 238v-58l-215 -190l215 -191v-61zM432 453v22l270 238v-58l-215 -190l215 -191v-61z" />
<glyph unicode="&#xac;" horiz-adv-x="1755" d="M1550 162v430h-1142v31h1191v-461h-49z" />
<glyph unicode="&#xad;" horiz-adv-x="1501" d="M383 418v39h958v-39h-958z" />
<glyph unicode="&#xae;" horiz-adv-x="2207" d="M1241 -29q-358 0 -612 187.5t-254 457.5t254 459t612 189t612 -188.5t254 -459.5q0 -270 -254 -457.5t-612 -187.5zM1241 1223q-342 0 -580.5 -178.5t-238.5 -428.5t238.5 -427t580.5 -177t580.5 177.5t238.5 426.5q0 250 -238.5 428.5t-580.5 178.5zM1593 231l-297 344 q-47 -2 -73 -2h-228v-342h-47v748h328q328 0 330 -203q2 -168 -246 -198l297 -347h-64zM1432 928q-41 8 -82 10h-78h-277v-322h242q123 0 158 7q170 29 170 153q0 123 -133 152z" />
<glyph unicode="&#xaf;" />
<glyph unicode="&#xb0;" horiz-adv-x="1226" d="M768 698q-150 0 -252 74t-102 178q0 100 102 173t252 73t252 -72.5t102 -173.5q0 -102 -101 -177t-253 -75zM768 1167q-119 0 -210 -65.5t-91 -151.5q0 -94 89 -156.5t212 -62.5q127 0 214 62.5t87 156.5q0 90 -86 153.5t-215 63.5z" />
<glyph unicode="&#xb1;" horiz-adv-x="1611" d="M975 537v-369h-49v369h-572v57h572v369h49v-369h571v-57h-571zM354 0v55h1192v-55h-1192z" />
<glyph unicode="&#xb4;" horiz-adv-x="804" d="M373 1016h-15l297 248h47z" />
<glyph unicode="&#xb5;" horiz-adv-x="1546" d="M1337 -6v162q-150 -109 -254 -150q-92 -35 -194 -35q-160 0 -387 129v-438h-51v1315h49v-643q0 -147 112 -228q104 -76 277 -75q215 0 338 123q111 109 110 268v555h49v-983h-49z" />
<glyph unicode="&#xb6;" horiz-adv-x="880" />
<glyph unicode="&#xb7;" horiz-adv-x="874" d="M670 539q-12 -6 -39 -7h-88q-23 0 -39 7q-25 14 -25 49q0 39 25 49q10 4 39 8h26q14 -2 19 -2q4 0 18 2h25q27 -4 39 -8q25 -10 24 -49q1 -37 -24 -49z" />
<glyph unicode="&#xb8;" />
<glyph unicode="&#xba;" horiz-adv-x="1210" d="M719 635q-172 0 -277 88q-94 80 -94 195t94 192q104 86 279 86q172 0 274 -86q94 -78 95 -192q0 -115 -95 -195q-102 -88 -276 -88zM721 1163q-143 0 -236 -76q-84 -72 -84 -169q0 -98 84 -170q92 -78 236 -78q141 0 231 78q84 72 84 170t-84 169q-90 76 -231 76z" />
<glyph unicode="&#xbb;" horiz-adv-x="1081" d="M680 213v61l215 191l-215 190v58l268 -238v-22zM442 213v61l215 191l-215 190v58l269 -238v-22z" />
<glyph unicode="&#xbf;" horiz-adv-x="1406" d="M831 891v47h50v-47h-50zM831 -328q-205 0 -333 74q-139 80 -140 217q0 98 62 172q43 51 172 139t172 150q53 74 61 201h49q-14 -152 -86 -244q-53 -70 -194 -160q-86 -55 -123 -98q-61 -70 -61 -160q0 -117 116.5 -182.5t304.5 -65.5q442 0 465 375h52 q-12 -205 -148 -311.5t-369 -106.5z" />
<glyph unicode="&#xc0;" horiz-adv-x="2072" d="M1901 0l-220 403h-847l-222 -403h-55l678 1235h59l662 -1235h-55zM1264 1198l-408 -752h803zM1370 1323l-315 250h49l282 -250h-16z" />
<glyph unicode="&#xc1;" />
<glyph unicode="&#xc2;" />
<glyph unicode="&#xc3;" horiz-adv-x="2058" d="M1907 0l-219 403h-848l-222 -403h-57l678 1235h61l660 -1235h-53zM1270 1198l-408 -752h803zM1530 1356q-25 -4 -43 -4q-61 0 -158.5 70.5t-157.5 70.5q-33 0 -53 -20q23 14 53 14q47 0 115 -43q53 -35 109 -72q49 -27 92 -26q23 0 43 10zM1530 1356q43 29 65 123h45 q-30 -103 -110 -123zM1118 1473q-39 -35 -53 -123h-39q31 94 92 123z" />
<glyph unicode="&#xc4;" horiz-adv-x="1835" d="M1663 0l-219 403h-848l-219 -403h-58l678 1235h60l659 -1235h-53zM1028 1198l-410 -752h803zM1204 1329v139h58v-139h-58zM799 1329v139h57v-139h-57z" />
<glyph unicode="&#xc6;" horiz-adv-x="2217" d="M1270 0v471h-602l-349 -471h-55l1008 1346h45v-111h901v-43h-903v-528h829v-43h-829v-580h903v-41h-948zM1270 1264l-576 -752h576v752z" />
<glyph unicode="&#xc8;" />
<glyph unicode="&#xc9;" horiz-adv-x="1622" d="M444 0v1235h1125v-41h-1075v-528h1011v-43h-1011v-582h1085v-41h-1135zM926 1323h-15l297 250h45z" />
<glyph unicode="&#xca;" />
<glyph unicode="&#xcb;" />
<glyph unicode="&#xcc;" />
<glyph unicode="&#xcd;" />
<glyph unicode="&#xce;" />
<glyph unicode="&#xcf;" />
<glyph unicode="&#xd2;" />
<glyph unicode="&#xd3;" />
<glyph unicode="&#xd4;" />
<glyph unicode="&#xd6;" horiz-adv-x="2252" d="M1384 -29q-358 0 -569 191q-199 178 -199 454q0 279 199 457q211 190 569 191q358 0 568 -191q199 -178 198 -457q0 -276 -198 -454q-212 -191 -568 -191zM1384 1223q-332 0 -526 -172q-186 -166 -186 -435q0 -266 186 -432q195 -172 526 -172q332 0 529 172 q188 166 188 432t-188 435q-197 172 -529 172zM1567 1329v139h57v-139h-57zM1161 1329v139h60v-139h-60z" />
<glyph unicode="&#xd7;" horiz-adv-x="1523" d="M981 438l453 -327l-35 -25l-451 328l-448 -328l-35 25l448 327l-448 326l35 22l448 -325l451 325l35 -22z" />
<glyph unicode="&#xd8;" horiz-adv-x="2027" d="M1157 -29q-301 0 -549 172l-162 -135l-40 23l165 137q-180 227 -180 448q0 279 197 457q211 190 569 191q301 0 545 -168l135 110l41 -24l-139 -113q182 -223 182 -453q0 -276 -197 -454q-209 -191 -567 -191zM1702 1038l-1063 -870q270 -156 518 -156q330 0 526 172 q190 166 191 432q0 211 -172 422zM1157 1223q-330 0 -526 -172q-188 -166 -191 -435q-2 -203 168 -417l1065 872q-278 152 -516 152z" />
<glyph unicode="&#xd9;" />
<glyph unicode="&#xda;" />
<glyph unicode="&#xdb;" />
<glyph unicode="&#xdc;" horiz-adv-x="2004" d="M1231 -29q-621 0 -621 490v774h49v-774q0 -449 572 -449q567 0 567 449v774h49v-774q0 -490 -616 -490zM1409 1329v139h59v-139h-59zM1004 1329v139h59v-139h-59z" />
<glyph unicode="&#xdf;" horiz-adv-x="1511" d="M772 -41v41q555 -4 555 344q0 168 -145 246q-133 72 -410 76v43q455 10 455 262q0 113 -106.5 181.5t-274.5 68.5q-121 0 -223 -54q-152 -80 -152 -241v-926h-49v932q0 156 135 246q117 78 287 77q180 0 301 -73q127 -80 127 -213q0 -86 -58 -160q-80 -102 -237 -115 q215 -25 317 -137q80 -88 80 -207q0 -389 -602 -391z" />
<glyph unicode="&#xe0;" horiz-adv-x="1697" d="M1634 53v-51h-53q-39 2 -74 39q-27 29 -37 133q-63 -94 -192 -145.5t-289 -51.5q-184 0 -295 66q-117 72 -116 205q0 207 219 266q90 25 229 33q233 12 234 12q29 2 94 10q125 29 125 121q0 260 -357 260q-182 0 -280 -55q-109 -61 -142 -201h-63q66 307 485 307 q406 0 406 -282v-512q0 -154 82 -154h24zM1479 571q-55 -61 -279 -71q-78 -4 -199 -11q-365 -20 -360 -243q2 -80 66 -137q88 -78 276 -78q233 0 371 114q125 102 125 252v174zM1219 1075l-316 275h49l283 -275h-16z" />
<glyph unicode="&#xe1;" horiz-adv-x="1662" d="M1602 53v-51h-52q-41 2 -75 39q-25 27 -35 133q-63 -94 -199 -147q-127 -49 -285 -50q-184 0 -292 66q-117 72 -117 205q0 207 217 266q90 25 229 33q233 12 234 12q29 2 94 10q125 29 125 121q0 260 -356 260q-182 0 -281 -55q-109 -61 -141 -201h-62q61 307 484 307 q406 0 405 -282v-512q0 -154 82 -154h25zM1446 571q-53 -61 -279 -71q-86 -4 -198 -11q-360 -20 -359 -243q0 -80 64 -137q88 -78 278 -78q231 0 369 114q125 102 125 252v174zM956 1075h-16l297 275h47z" />
<glyph unicode="&#xe2;" horiz-adv-x="1738" d="M1673 53v-51h-53q-39 2 -74 39q-27 29 -37 133q-63 -94 -192 -145.5t-289 -51.5q-184 0 -295 66q-117 72 -117 205q0 207 220 266q90 25 229 33l233 12q29 2 95 10q125 29 125 121q0 260 -357 260q-182 0 -280 -55q-109 -61 -142 -201h-63q66 307 485 307q406 0 406 -282 v-512q0 -154 82 -154h24zM1518 571q-55 -61 -279 -71q-86 -4 -199 -11q-365 -20 -360 -243q2 -80 65 -137q88 -78 277 -78q233 0 371 114q125 102 125 252v174zM1393 1083l-246 254l-236 -254h-30l249 267h41l250 -267h-28z" />
<glyph unicode="&#xe3;" />
<glyph unicode="&#xe4;" horiz-adv-x="1449" d="M1380 53v-51h-53q-39 2 -74 39q-27 29 -36 133q-63 -94 -192.5 -145.5t-289.5 -51.5q-184 0 -295 66q-117 72 -116 205q0 207 219 266q90 25 229 33q233 12 234 12q29 2 94 10q125 25 125 121q0 260 -357 260q-182 0 -280 -55q-109 -61 -142 -201h-63q66 307 485 307 q406 0 406 -282v-512q0 -154 82 -154h24zM1225 571q-55 -61 -279 -71q-78 -4 -198 -11q-362 -20 -361 -243q0 -80 64 -137q90 -78 278 -78q233 0 371 114q125 102 125 252v174zM1038 1122v113h58v-113h-58zM633 1122v113h57v-113h-57z" />
<glyph unicode="&#xe5;" />
<glyph unicode="&#xe6;" horiz-adv-x="2394" d="M2257 348q-31 -166 -156 -264q-133 -104 -338 -107q-150 -2 -260 58q-121 66 -227 221q-197 -279 -504 -279q-180 0 -285 66q-113 70 -112 203q0 209 213 268q68 18 219 31q82 4 225 12q29 2 92 10q121 25 121 123q0 262 -346 262q-340 0 -399 -290h-47q59 340 448 339 q141 0 252 -59q145 -80 147 -233q70 147 207 225q119 68 260 67q238 0 369 -140t137 -390h-977q-8 -166 115 -295q133 -141 352 -141q362 0 449 317q6 0 21.5 -2t23.5 -2zM1767 944q-186 0 -296.5 -98t-176.5 -318h916q-16 195 -131 305.5t-312 110.5zM987 500 q-70 -6 -205 -15q-55 -4 -110 -6q-61 -6 -107 -22q-143 -51 -143 -211q0 -84 72 -140q92 -72 274 -71q221 0 356 117q119 102 121 245l2 166q-133 -57 -260 -63z" />
<glyph unicode="&#xe7;" horiz-adv-x="880" />
<glyph unicode="&#xe8;" horiz-adv-x="1683" d="M602 471q8 -199 127 -313q125 -121 344 -121q158 0 248 35q123 51 197 188h67q-59 -154 -186 -219q-119 -63 -324 -64q-268 0 -411 156q-127 137 -127 356q0 217 170 369q162 143 370 143q252 0 389.5 -141t143.5 -389h-1008zM1085 942q-178 0 -319 -115 q-145 -121 -164 -299h934q-12 190 -130 302t-321 112zM1245 1075l-313 275h47l283 -275h-17z" />
<glyph unicode="&#xe9;" horiz-adv-x="1697" d="M610 471q8 -197 130 -315.5t341 -118.5q158 0 248 35q123 51 199 188h67q-61 -154 -188 -219q-119 -63 -324 -64q-268 0 -411 156q-127 137 -127 356q0 217 170 369q162 143 370 143q252 0 389.5 -141t143.5 -389h-1008zM1094 942q-178 0 -320 -115q-145 -121 -164 -299 h936q-14 188 -132.5 301t-319.5 113zM979 1075h-14l297 275h47z" />
<glyph unicode="&#xea;" horiz-adv-x="1701" d="M455 471q10 -199 129 -313q125 -121 344 -121q158 0 248 35q123 51 196 188h68q-61 -154 -183 -218.5t-327 -64.5q-268 0 -412 156q-127 137 -127 356q0 217 170 369q162 143 371 143q252 0 389 -141t143 -389h-1009zM940 942q-178 0 -319 -115q-147 -121 -164 -299h934 q-12 188 -131 301t-320 113zM1214 1083l-245 246l-236 -246h-49l268 267h41l252 -267h-31z" />
<glyph unicode="&#xeb;" horiz-adv-x="1699" d="M453 471q10 -199 129 -313q123 -121 342 -121q158 0 247 35q123 51 199 188h68q-61 -154 -183 -218.5t-327 -64.5q-268 0 -412 156q-129 137 -129 356q0 217 170 369q162 143 371 143q252 0 393 -143q135 -139 139 -387h-1007zM938 942q-180 0 -322 -115 q-145 -121 -161 -299h934q-12 188 -131 301t-320 113zM1135 1122v113h59v-113h-59zM729 1122v113h59v-113h-59z" />
<glyph unicode="&#xf2;" horiz-adv-x="1808" d="M1143 -23q-252 0 -406 152q-143 143 -143 360q0 215 143 359q154 154 408 153q252 0 405 -153q143 -143 144 -359q0 -217 -144 -360q-153 -152 -407 -152zM1145 948q-238 0 -377 -145q-125 -129 -125 -314q0 -186 125 -315q137 -145 377 -145q236 0 375 145 q125 129 125 315q0 182 -125 314q-139 145 -375 145zM1284 1075l-315 275h47l282 -275h-14z" />
<glyph unicode="&#xf3;" horiz-adv-x="1804" d="M1139 -23q-252 0 -406 152q-143 143 -143 360q0 215 143 359q154 154 408 153q252 0 405 -153q143 -143 144 -359q0 -217 -144 -360q-153 -152 -407 -152zM1141 948q-238 0 -377 -145q-125 -129 -125 -314q0 -186 125 -315q137 -145 377 -145q236 0 372 145 q125 129 125 315q0 182 -125 314q-139 145 -372 145zM1016 1075h-15l297 275h45z" />
<glyph unicode="&#xf4;" horiz-adv-x="1810" d="M1145 -23q-252 0 -406 152q-143 143 -143 360q0 215 143 359q154 154 408 153q252 0 405 -153q143 -143 144 -359q0 -217 -144 -360q-153 -152 -407 -152zM1147 948q-238 0 -377 -145q-125 -129 -125 -314q0 -186 125 -315q137 -145 377 -145q236 0 375 145 q125 129 125 315q0 182 -125 314q-142 145 -375 145zM1458 1083l-246 254l-235 -254h-29l248 267h41l252 -267h-31z" />
<glyph unicode="&#xf5;" horiz-adv-x="1810" d="M1145 -23q-252 0 -406 152q-143 143 -143 360q0 215 143 359q154 154 408 153q252 0 405 -153q143 -143 144 -359q0 -217 -144 -360q-153 -152 -407 -152zM1147 948q-238 0 -377 -145q-125 -131 -125 -314q0 -186 125 -315q139 -145 377 -145q236 0 375 145 q125 129 125 315q0 182 -125 314q-142 145 -375 145zM1440 1112q-20 -6 -43 -6q-59 0 -159.5 79t-158.5 79q-27 0 -51 -25q23 14 51 14q55 0 159.5 -77.5t158.5 -77.5q23 0 43 14zM1440 1112q45 35 63 133h47q-30 -110 -110 -133zM1028 1239q-43 -39 -53 -135h-41 q33 100 94 135z" />
<glyph unicode="&#xf6;" horiz-adv-x="1798" d="M1133 -23q-252 0 -406 152q-143 143 -143 360q0 215 143 359q154 154 408 153q252 0 405 -153q143 -143 143 -359q0 -217 -143 -360q-153 -152 -407 -152zM1135 948q-238 0 -377 -145q-125 -129 -125 -314q0 -186 125 -315q137 -145 377 -145q236 0 374 145 q125 129 125 315q0 182 -125 314q-138 145 -374 145zM1313 1122v113h57v-113h-57zM907 1122v113h58v-113h-58z" />
<glyph unicode="&#xf7;" horiz-adv-x="1570" d="M928 729q-98 0 -99 74q0 72 99 71q41 0 69.5 -20t28.5 -51q0 -74 -98 -74zM332 418v39h1190v-39h-1190zM928 0q-98 0 -99 72q0 33 29 53t70 20t69.5 -21.5t28.5 -51.5q0 -72 -98 -72z" />
<glyph unicode="&#xf8;" horiz-adv-x="1617" d="M1386 819q111 -178 111 -330q0 -217 -143 -360q-150 -152 -402 -152q-215 0 -403 148l-133 -109l-43 35l141 113q-106 176 -106 325q0 215 143 359q152 154 403 153q205 0 396 -143l104 84l43 -33zM954 944q-238 0 -374 -143q-125 -129 -125 -312q0 -104 94 -292l766 634 q-216 113 -361 113zM1348 786l-766 -632q219 -119 372 -119q233 0 371 141q125 127 125 313q0 115 -102 297z" />
<glyph unicode="&#xf9;" horiz-adv-x="1638" d="M1425 0v221q-70 -135 -213 -196q-109 -47 -235 -48q-195 0 -313 89q-127 96 -127 266v645h51v-639q0 -150 112 -229q104 -74 277 -74q213 0 338 121q111 109 110 270v551h50v-977h-50zM1235 1075l-315 275h47l282 -275h-14z" />
<glyph unicode="&#xfa;" horiz-adv-x="1636" d="M1423 0v221q-68 -135 -213 -196q-106 -47 -233 -48q-195 0 -313 89q-127 96 -127 266v645h51v-639q0 -150 112 -229q102 -74 277 -74q213 0 336 121q111 109 110 270v551h50v-977h-50zM971 1075h-15l295 275h47z" />
<glyph unicode="&#xfb;" horiz-adv-x="1644" d="M1425 0v221q-70 -135 -213 -196q-109 -47 -235 -48q-195 0 -311 89q-127 96 -127 266v645h49v-639q0 -150 112 -229q104 -74 277 -74q215 0 338 121q111 109 110 270v551h52v-977h-52zM1266 1083l-246 254l-236 -254h-28l248 267h38l254 -267h-30z" />
<glyph unicode="&#xfc;" horiz-adv-x="1648" d="M1430 0v221q-70 -135 -213 -196q-109 -47 -236 -48q-195 0 -313 89q-127 96 -127 266v645h51v-639q0 -150 113 -229q104 -74 276 -74q215 0 338 121q111 109 111 270v551h49v-977h-49zM1206 1102v133h58v-133h-58zM801 1102v133h57v-133h-57z" />
<glyph unicode="&#xff;" />
<glyph unicode="&#x152;" horiz-adv-x="2521" d="M1524 0v98q-256 -127 -451 -127q-354 0 -561 191q-195 176 -195 448q0 279 191 459q207 195 565 195q207 0 451 -123v94h997v-41h-950v-528h839v-43h-839v-582h950v-41h-997zM1524 1073q-119 84 -217.5 117t-233.5 33q-324 0 -517.5 -169t-193.5 -444q0 -262 191.5 -430 t519.5 -168q244 0 451 154v907z" />
<glyph unicode="&#x153;" horiz-adv-x="2412" d="M1354 471q59 -449 450 -448q319 0 420 319h45q-109 -367 -467 -365q-162 0 -290 87.5t-179 230.5q-98 -317 -461 -318q-242 0 -372 156q-115 139 -115 356t113 355q129 158 374 157q158 0 281 -75q147 -94 180 -277q37 172 178 266q125 84 291 86q238 2 369 -145 q117 -133 117 -346v-39h-934zM1804 944q-199 0 -303 -100.5t-149 -315.5h878q-25 416 -426 416zM872 950q-227 0 -342 -147q-98 -123 -98 -314q0 -190 94 -313q115 -147 340 -147q238 0 353 143q94 119 94 317q0 195 -94 314q-114 147 -347 147z" />
<glyph unicode="&#x178;" />
<glyph unicode="&#x2c6;" />
<glyph unicode="&#x2dc;" />
<glyph unicode="&#x2000;" horiz-adv-x="786" />
<glyph unicode="&#x2001;" horiz-adv-x="1573" />
<glyph unicode="&#x2002;" horiz-adv-x="786" />
<glyph unicode="&#x2003;" horiz-adv-x="1573" />
<glyph unicode="&#x2004;" horiz-adv-x="524" />
<glyph unicode="&#x2005;" horiz-adv-x="393" />
<glyph unicode="&#x2006;" horiz-adv-x="262" />
<glyph unicode="&#x2007;" horiz-adv-x="262" />
<glyph unicode="&#x2008;" horiz-adv-x="196" />
<glyph unicode="&#x2009;" horiz-adv-x="314" />
<glyph unicode="&#x200a;" horiz-adv-x="87" />
<glyph unicode="&#x2010;" horiz-adv-x="1501" d="M383 418v39h958v-39h-958z" />
<glyph unicode="&#x2011;" horiz-adv-x="1501" d="M383 418v39h958v-39h-958z" />
<glyph unicode="&#x2012;" horiz-adv-x="1501" d="M383 418v39h958v-39h-958z" />
<glyph unicode="&#x2013;" horiz-adv-x="1714" d="M365 418v39h1191v-39h-1191z" />
<glyph unicode="&#x2014;" horiz-adv-x="880" />
<glyph unicode="&#x2018;" horiz-adv-x="745" d="M518 1047v-201h-88v201q0 72 23 98q31 41 149 82v-29q-41 -20 -62.5 -49.5t-21.5 -101.5z" />
<glyph unicode="&#x2019;" horiz-adv-x="727" d="M408 854v29q76 43 81 110v41v201h89v-201q0 -70 -21 -96q-32 -41 -149 -84z" />
<glyph unicode="&#x201a;" horiz-adv-x="743" d="M416 -193v23q84 53 84 174v166h88v-166q0 -57 -25 -92q-34 -52 -147 -105z" />
<glyph unicode="&#x201c;" horiz-adv-x="978" d="M768 1049v-203h-59v203q0 72 18 100q23 39 109 78v-29q-68 -45 -68 -149zM502 1049v-203h-62v203q0 70 19 100q25 39 108 78v-29q-65 -47 -65 -149z" />
<glyph unicode="&#x201d;" horiz-adv-x="937" d="M676 854v29q68 45 67 151v201h60v-201q0 -72 -19 -102q-24 -39 -108 -78zM410 854v29q66 47 65 151v201h62v-201q0 -72 -19 -102q-24 -39 -108 -78z" />
<glyph unicode="&#x201e;" horiz-adv-x="968" d="M684 -193v21q68 55 68 174v168h59v-168q0 -59 -18 -94q-27 -52 -109 -101zM418 -193v21q68 55 67 174v168h60v-168q0 -59 -19 -94q-26 -52 -108 -101z" />
<glyph unicode="&#x2022;" horiz-adv-x="1439" d="M856 309q-180 0 -305 90t-125 217q0 129 125 219.5t305 90.5t306 -90.5t126 -219.5q0 -127 -126 -217t-306 -90z" />
<glyph unicode="&#x2026;" horiz-adv-x="2281" d="M2077 0v170h47v-170h-47zM1303 0v170h47v-170h-47zM528 0v170h50v-170h-50z" />
<glyph unicode="&#x202f;" horiz-adv-x="314" />
<glyph unicode="&#x2039;" horiz-adv-x="874" d="M432 453v22l301 240v-62l-239 -188l239 -191v-63z" />
<glyph unicode="&#x203a;" horiz-adv-x="870" d="M440 211v63l238 191l-238 188v62l301 -240v-22z" />
<glyph unicode="&#x205f;" horiz-adv-x="393" />
<glyph unicode="&#x2122;" horiz-adv-x="2459" d="M2261 522v684l-383 -684h-47l-381 684v-684h-49v713h82l372 -662l373 662h80v-713h-47zM840 1200v-678h-47v678h-347v35h740v-35h-346z" />
<glyph unicode="&#x25fc;" horiz-adv-x="972" d="M0 973h973v-973h-973v973z" />
</font>
</defs>
</svg>
